<svg width="21" height="20" viewBox="0 0 21 20" fill="none" xmlns="http://www.w3.org/2000/svg">
<g clip-path="url(#clip0_6978_8677)">
<path d="M11.4333 14.1861L7.93418 12.2778C7.47734 12.7661 6.88416 13.1058 6.23174 13.2527C5.57931 13.3995 4.8978 13.3467 4.27578 13.1011C3.65375 12.8555 3.11998 12.4285 2.74382 11.8756C2.36765 11.3227 2.1665 10.6694 2.1665 10.0007C2.1665 9.33192 2.36765 8.67864 2.74382 8.12571C3.11998 7.57279 3.65375 7.14579 4.27578 6.90022C4.8978 6.65464 5.57931 6.60184 6.23174 6.74868C6.88416 6.89551 7.47734 7.2352 7.93418 7.72358L11.4342 5.81525C11.2355 5.02865 11.3305 4.19657 11.7014 3.475C12.0723 2.75343 12.6936 2.1919 13.4489 1.89567C14.2042 1.59944 15.0416 1.58884 15.8042 1.86586C16.5667 2.14289 17.2021 2.68851 17.5911 3.40047C17.9801 4.11242 18.0962 4.94182 17.9174 5.73321C17.7387 6.52459 17.2775 7.22361 16.6202 7.69926C15.9629 8.1749 15.1548 8.39451 14.3472 8.31691C13.5396 8.23932 12.788 7.86984 12.2333 7.27775L8.73334 9.18608C8.86768 9.72055 8.86768 10.28 8.73334 10.8144L12.2325 12.7228C12.7872 12.1307 13.5387 11.7612 14.3463 11.6836C15.1539 11.606 15.9621 11.8256 16.6194 12.3012C17.2766 12.7769 17.7379 13.4759 17.9166 14.2673C18.0953 15.0587 17.9793 15.8881 17.5903 16.6C17.2012 17.312 16.5659 17.8576 15.8033 18.1346C15.0408 18.4117 14.2034 18.4011 13.4481 18.1048C12.6928 17.8086 12.0714 17.2471 11.7005 16.5255C11.3296 15.8039 11.2346 14.9719 11.4333 14.1853V14.1861ZM5.50001 11.6669C5.94204 11.6669 6.36596 11.4913 6.67852 11.1788C6.99108 10.8662 7.16668 10.4423 7.16668 10.0003C7.16668 9.55822 6.99108 9.1343 6.67852 8.82174C6.36596 8.50918 5.94204 8.33358 5.50001 8.33358C5.05798 8.33358 4.63406 8.50918 4.3215 8.82174C4.00894 9.1343 3.83334 9.55822 3.83334 10.0003C3.83334 10.4423 4.00894 10.8662 4.3215 11.1788C4.63406 11.4913 5.05798 11.6669 5.50001 11.6669ZM14.6667 6.66692C15.1087 6.66692 15.5326 6.49132 15.8452 6.17876C16.1577 5.8662 16.3333 5.44228 16.3333 5.00025C16.3333 4.55822 16.1577 4.1343 15.8452 3.82174C15.5326 3.50918 15.1087 3.33358 14.6667 3.33358C14.2246 3.33358 13.8007 3.50918 13.4882 3.82174C13.1756 4.1343 13 4.55822 13 5.00025C13 5.44228 13.1756 5.8662 13.4882 6.17876C13.8007 6.49132 14.2246 6.66692 14.6667 6.66692ZM14.6667 16.6669C15.1087 16.6669 15.5326 16.4913 15.8452 16.1788C16.1577 15.8662 16.3333 15.4423 16.3333 15.0003C16.3333 14.5582 16.1577 14.1343 15.8452 13.8217C15.5326 13.5092 15.1087 13.3336 14.6667 13.3336C14.2246 13.3336 13.8007 13.5092 13.4882 13.8217C13.1756 14.1343 13 14.5582 13 15.0003C13 15.4423 13.1756 15.8662 13.4882 16.1788C13.8007 16.4913 14.2246 16.6669 14.6667 16.6669Z" fill="white"/>
</g>
<defs>
<clipPath id="clip0_6978_8677">
<rect width="20" height="20" fill="white" transform="translate(0.5)"/>
</clipPath>
</defs>
</svg>
