<svg width="19" height="18" viewBox="0 0 19 18" fill="none" xmlns="http://www.w3.org/2000/svg">
<path fill-rule="evenodd" clip-rule="evenodd" d="M18.7106 0.192239C18.4008 -0.0776758 17.916 -0.061378 17.6277 0.228641L9.95483 7.94704L2.28199 0.228641L2.18998 0.14986C1.89847 -0.0617754 1.47786 -0.0506844 1.19906 0.192239C0.889274 0.462154 0.871865 0.91607 1.16017 1.20609L8.90808 9L1.16017 16.7939L1.08284 16.8855C0.878271 17.1729 0.920252 17.5648 1.19906 17.8078C1.50884 18.0777 1.99368 18.0614 2.28199 17.7714L9.95483 10.053L17.6277 17.7714L17.7197 17.8501C18.0112 18.0618 18.4318 18.0507 18.7106 17.8078C19.0204 17.5378 19.0378 17.0839 18.7495 16.7939L11.0016 9L18.7495 1.20609L18.8268 1.11451C19.0314 0.827127 18.9894 0.435162 18.7106 0.192239Z" fill="white"/>
</svg>
