<?xml version="1.0" encoding="UTF-8"?>
<svg id="Capa_1" data-name="Capa 1" xmlns="http://www.w3.org/2000/svg" xmlns:xlink="http://www.w3.org/1999/xlink" viewBox="0 0 24 24">
  <defs>
    <style>
      .cls-1 {
        clip-path: url(#clippath);
      }

      .cls-2 {
        fill: none;
      }

      .cls-2, .cls-3 {
        stroke-width: 0px;
      }

      .cls-3 {
        fill: #fff;
      }
    </style>
    <clipPath id="clippath">
      <rect class="cls-2" width="24" height="24"/>
    </clipPath>
  </defs>
  <g class="cls-1">
    <path class="cls-3" d="M12,3c5.39,0,9.88,3.88,10.82,9-.94,5.12-5.43,9-10.82,9S2.12,17.12,1.18,12C2.12,6.88,6.61,3,12,3ZM12,19c2.04,0,4.02-.69,5.61-1.96,1.59-1.27,2.71-3.05,3.16-5.04-.46-1.99-1.57-3.76-3.17-5.03-1.59-1.27-3.57-1.96-5.61-1.96s-4.02.69-5.61,1.96c-1.59,1.27-2.71,3.04-3.17,5.03.45,1.99,1.57,3.76,3.16,5.04,1.59,1.27,3.57,1.96,5.61,1.96ZM12,16.5c-1.19,0-2.34-.47-3.18-1.32-.84-.84-1.32-1.99-1.32-3.18s.47-2.34,1.32-3.18c.84-.84,1.99-1.32,3.18-1.32s2.34.47,3.18,1.32c.84.84,1.32,1.99,1.32,3.18s-.47,2.34-1.32,3.18-1.99,1.32-3.18,1.32ZM12,14.5c.66,0,1.3-.26,1.77-.73.47-.47.73-1.1.73-1.77s-.26-1.3-.73-1.77c-.47-.47-1.1-.73-1.77-.73s-1.3.26-1.77.73c-.47.47-.73,1.1-.73,1.77s.26,1.3.73,1.77c.47.47,1.1.73,1.77.73Z"/>
  </g>
</svg>