<svg width="36" height="36" viewBox="0 0 36 36" fill="none" xmlns="http://www.w3.org/2000/svg">
<path fill-rule="evenodd" clip-rule="evenodd" d="M18 2.51163C9.44601 2.51163 2.51163 9.44601 2.51163 18C2.51163 26.554 9.44601 33.4884 18 33.4884C26.554 33.4884 33.4884 26.554 33.4884 18C33.4884 9.44601 26.554 2.51163 18 2.51163ZM0 18C0 8.05887 8.05887 0 18 0C27.9411 0 36 8.05887 36 18C36 27.9411 27.9411 36 18 36C8.05887 36 0 27.9411 0 18Z" fill="white"/>
<path fill-rule="evenodd" clip-rule="evenodd" d="M24.3053 11.6951C24.8284 12.2182 24.8284 13.0663 24.3053 13.5895L13.589 24.3057C13.0659 24.8289 12.2177 24.8289 11.6946 24.3057C11.1715 23.7826 11.1715 22.9345 11.6946 22.4114L22.4109 11.6951C22.934 11.172 23.7821 11.172 24.3053 11.6951Z" fill="white"/>
<path fill-rule="evenodd" clip-rule="evenodd" d="M11.6946 11.6943C12.2177 11.1711 13.0659 11.1711 13.589 11.6943L24.3053 22.4105C24.8284 22.9337 24.8284 23.7818 24.3053 24.3049C23.7821 24.828 22.934 24.828 22.4109 24.3049L11.6946 13.5886C11.1715 13.0655 11.1715 12.2174 11.6946 11.6943Z" fill="white"/>
</svg>
