<svg width="32" height="32" viewBox="0 0 32 32" fill="none" xmlns="http://www.w3.org/2000/svg">
<path d="M10.2734 11.7073L10.2734 14.0487" stroke="#3A3A3A" stroke-width="1.56097" stroke-linecap="round" stroke-linejoin="round"/>
<path d="M22.917 11.7073L22.917 14.0487" stroke="#3A3A3A" stroke-width="1.56097" stroke-linecap="round" stroke-linejoin="round"/>
<path d="M2 9.28775V7.18043C2 3.81824 4.72559 1.09265 8.08778 1.09265H9.96095" stroke="#3A3A3A" stroke-width="2.16663" stroke-linecap="round" stroke-linejoin="round"/>
<path d="M30.8779 9.28775V7.18043C30.8779 3.81824 28.1523 1.09265 24.7901 1.09265H22.917" stroke="#3A3A3A" stroke-width="2.16663" stroke-linecap="round" stroke-linejoin="round"/>
<path d="M2 21.8536V23.9609C2 27.3231 4.72559 30.0487 8.08778 30.0487H9.96095" stroke="#3A3A3A" stroke-width="2.16663" stroke-linecap="round" stroke-linejoin="round"/>
<path d="M30.8779 21.8536V23.9609C30.8779 27.3231 28.1523 30.0487 24.7901 30.0487H22.917" stroke="#3A3A3A" stroke-width="2.16663" stroke-linecap="round" stroke-linejoin="round"/>
<path d="M17.2979 11.8634V16.7805C17.2979 17.8581 16.4243 18.7317 15.3467 18.7317V18.7317" stroke="#3A3A3A" stroke-width="1.56097" stroke-linecap="round" stroke-linejoin="round"/>
<path d="M16.3627 24.8679C14.3725 24.8445 12.618 24.2138 11.1272 22.8823C10.8619 22.6466 10.6699 22.3781 10.7667 21.9988C10.9259 21.3822 11.6174 21.1809 12.12 21.6242C12.7912 22.2158 13.5218 22.7075 14.3881 22.9495C16.6406 23.577 18.7073 23.2585 20.5102 21.6882C21.0644 21.2059 21.7091 21.326 21.9182 21.9458C22.0322 22.2845 21.9198 22.5608 21.6763 22.7887C20.1716 24.1899 18.3904 24.8679 16.3643 24.8679H16.3627Z" fill="#3A3A3A"/>
</svg>
