<svg width="24" height="24" viewBox="0 0 24 24" fill="none" xmlns="http://www.w3.org/2000/svg">
<path fill-rule="evenodd" clip-rule="evenodd" d="M10.8596 2.84717C6.98667 2.84717 3.84708 5.98676 3.84708 9.85974C3.84708 13.7327 6.98667 16.8723 10.8596 16.8723C12.2556 16.8723 13.5563 16.4644 14.6491 15.7613L19.9439 21.0561L20.0245 21.1247C20.2785 21.3074 20.6347 21.2846 20.8631 21.0561C21.117 20.8023 21.117 20.3907 20.8631 20.1369L15.6796 14.9534C17.0299 13.6752 17.8722 11.8658 17.8722 9.85974C17.8722 5.98676 14.7326 2.84717 10.8596 2.84717ZM10.8596 4.14717C14.0147 4.14717 16.5722 6.70473 16.5722 9.85974C16.5722 13.0148 14.0147 15.5723 10.8596 15.5723C7.70464 15.5723 5.14708 13.0148 5.14708 9.85974C5.14708 6.70473 7.70464 4.14717 10.8596 4.14717Z" fill="white"/>
</svg>
