<svg width="24" height="24" viewBox="0 0 17 17" fill="none" xmlns="http://www.w3.org/2000/svg">
<path d="M2.88867 2.88867L14.8887 14.8887" stroke="white" stroke-width="1.33333" stroke-linecap="round" stroke-linejoin="round"/>
<path d="M7.94453 7.94678C7.69434 8.19679 7.55371 8.53595 7.55359 8.88964C7.55346 9.24333 7.69385 9.58259 7.94386 9.83278C8.19387 10.083 8.53303 10.2236 8.88672 10.2237C9.24041 10.2238 9.57967 10.0835 9.82986 9.83344" stroke="white" stroke-width="1.33333" stroke-linecap="round" stroke-linejoin="round"/>
<path d="M7.13065 4.46554C7.70226 4.30202 8.29411 4.2201 8.88865 4.22221C11.5553 4.22221 13.7773 5.77754 15.5553 8.88887C15.0367 9.79621 14.4807 10.5715 13.8867 11.2142M12.46 12.4549C11.3727 13.1882 10.1833 13.5555 8.88865 13.5555C6.22198 13.5555 3.99998 12.0002 2.22198 8.88887C3.13465 7.29221 4.16398 6.10554 5.30998 5.32821" stroke="white" stroke-width="1.33333" stroke-linecap="round" stroke-linejoin="round"/>
</svg>
